<mxfile host="app.diagrams.net" modified="2022-03-08T08:43:37.023Z" agent="5.0 (Windows NT 10.0; Win64; x64) AppleWebKit/537.36 (KHTML, like Gecko) Chrome/98.0.4758.102 Safari/537.36" etag="YHDN6jC3hPt988KTHFOY" version="16.6.5" type="github">
  <diagram id="S_uzsy8baUlCYlhh0wyh" name="Page-1">
    <mxGraphModel dx="1580" dy="819" grid="1" gridSize="10" guides="1" tooltips="1" connect="1" arrows="1" fold="1" page="1" pageScale="1" pageWidth="827" pageHeight="1169" math="0" shadow="0">
      <root>
        <mxCell id="0" />
        <mxCell id="1" parent="0" />
        <mxCell id="crSkOfjxvRrUMkr8Q7-_-1" value="" style="rounded=0;whiteSpace=wrap;html=1;fontSize=14;" vertex="1" parent="1">
          <mxGeometry x="120" y="120" width="620" height="60" as="geometry" />
        </mxCell>
        <mxCell id="crSkOfjxvRrUMkr8Q7-_-2" value="" style="rounded=0;whiteSpace=wrap;html=1;fontSize=14;" vertex="1" parent="1">
          <mxGeometry x="120" y="280" width="620" height="350" as="geometry" />
        </mxCell>
        <mxCell id="crSkOfjxvRrUMkr8Q7-_-3" value="GPS模块" style="whiteSpace=wrap;html=1;aspect=fixed;fontSize=14;" vertex="1" parent="1">
          <mxGeometry x="380" y="350" width="120" height="120" as="geometry" />
        </mxCell>
        <mxCell id="crSkOfjxvRrUMkr8Q7-_-4" value="检查表模块" style="whiteSpace=wrap;html=1;aspect=fixed;fontSize=14;" vertex="1" parent="1">
          <mxGeometry x="563.5" y="350" width="120" height="120" as="geometry" />
        </mxCell>
        <mxCell id="crSkOfjxvRrUMkr8Q7-_-5" value="表单模块" style="whiteSpace=wrap;html=1;aspect=fixed;gradientColor=none;fontSize=14;" vertex="1" parent="1">
          <mxGeometry x="200" y="350" width="120" height="120" as="geometry" />
        </mxCell>
        <mxCell id="crSkOfjxvRrUMkr8Q7-_-6" value="字典模块" style="whiteSpace=wrap;html=1;aspect=fixed;fontSize=14;" vertex="1" parent="1">
          <mxGeometry x="280" y="495" width="120" height="120" as="geometry" />
        </mxCell>
        <mxCell id="crSkOfjxvRrUMkr8Q7-_-7" value="邮件模块" style="whiteSpace=wrap;html=1;aspect=fixed;fontSize=14;" vertex="1" parent="1">
          <mxGeometry x="490" y="495" width="120" height="120" as="geometry" />
        </mxCell>
        <mxCell id="crSkOfjxvRrUMkr8Q7-_-8" value="" style="rounded=0;whiteSpace=wrap;html=1;fontSize=14;" vertex="1" parent="1">
          <mxGeometry x="120" y="200" width="620" height="60" as="geometry" />
        </mxCell>
        <mxCell id="crSkOfjxvRrUMkr8Q7-_-9" value="浏览器" style="rounded=0;whiteSpace=wrap;html=1;fontSize=14;" vertex="1" parent="1">
          <mxGeometry x="250" y="130" width="120" height="40" as="geometry" />
        </mxCell>
        <mxCell id="crSkOfjxvRrUMkr8Q7-_-10" value="" style="rounded=0;whiteSpace=wrap;html=1;fontSize=14;" vertex="1" parent="1">
          <mxGeometry x="120" y="730" width="620" height="110" as="geometry" />
        </mxCell>
        <mxCell id="crSkOfjxvRrUMkr8Q7-_-11" value="MySQL" style="rounded=0;whiteSpace=wrap;html=1;fontSize=14;" vertex="1" parent="1">
          <mxGeometry x="210" y="755" width="120" height="60" as="geometry" />
        </mxCell>
        <mxCell id="crSkOfjxvRrUMkr8Q7-_-12" value="NoSQL数据库" style="rounded=0;whiteSpace=wrap;html=1;fontSize=14;" vertex="1" parent="1">
          <mxGeometry x="480" y="755" width="120" height="60" as="geometry" />
        </mxCell>
        <mxCell id="crSkOfjxvRrUMkr8Q7-_-13" value="权限控制" style="text;html=1;strokeColor=none;fillColor=none;align=center;verticalAlign=middle;whiteSpace=wrap;rounded=0;fontSize=18;" vertex="1" parent="1">
          <mxGeometry x="130" y="210" width="80" height="30" as="geometry" />
        </mxCell>
        <mxCell id="crSkOfjxvRrUMkr8Q7-_-14" value="业务模块" style="text;html=1;strokeColor=none;fillColor=none;align=center;verticalAlign=middle;whiteSpace=wrap;rounded=0;fontSize=18;" vertex="1" parent="1">
          <mxGeometry x="120" y="290" width="100" height="30" as="geometry" />
        </mxCell>
        <mxCell id="crSkOfjxvRrUMkr8Q7-_-15" value="" style="rounded=0;whiteSpace=wrap;html=1;fontSize=14;" vertex="1" parent="1">
          <mxGeometry x="120" y="650" width="620" height="60" as="geometry" />
        </mxCell>
        <mxCell id="crSkOfjxvRrUMkr8Q7-_-16" value="Redis" style="rounded=0;whiteSpace=wrap;html=1;fontSize=14;" vertex="1" parent="1">
          <mxGeometry x="370" y="660" width="120" height="40" as="geometry" />
        </mxCell>
        <mxCell id="crSkOfjxvRrUMkr8Q7-_-17" value="缓存层" style="text;html=1;strokeColor=none;fillColor=none;align=center;verticalAlign=middle;whiteSpace=wrap;rounded=0;fontSize=18;" vertex="1" parent="1">
          <mxGeometry x="130" y="660" width="80" height="30" as="geometry" />
        </mxCell>
        <mxCell id="crSkOfjxvRrUMkr8Q7-_-18" value="存储层" style="text;html=1;strokeColor=none;fillColor=none;align=center;verticalAlign=middle;whiteSpace=wrap;rounded=0;fontSize=18;" vertex="1" parent="1">
          <mxGeometry x="130" y="740" width="80" height="30" as="geometry" />
        </mxCell>
        <mxCell id="crSkOfjxvRrUMkr8Q7-_-19" value="ActiveMQ消息队列" style="rounded=0;whiteSpace=wrap;html=1;fontSize=14;gradientColor=none;" vertex="1" parent="1">
          <mxGeometry x="760" y="200" width="100" height="640" as="geometry" />
        </mxCell>
        <mxCell id="crSkOfjxvRrUMkr8Q7-_-20" value="小程序" style="rounded=0;whiteSpace=wrap;html=1;fontSize=14;" vertex="1" parent="1">
          <mxGeometry x="470" y="130" width="120" height="40" as="geometry" />
        </mxCell>
        <mxCell id="crSkOfjxvRrUMkr8Q7-_-21" value="应用层" style="text;html=1;strokeColor=none;fillColor=none;align=center;verticalAlign=middle;whiteSpace=wrap;rounded=0;fontSize=18;" vertex="1" parent="1">
          <mxGeometry x="120" y="130" width="80" height="30" as="geometry" />
        </mxCell>
        <mxCell id="crSkOfjxvRrUMkr8Q7-_-22" value="RBAC模块" style="rounded=0;whiteSpace=wrap;html=1;fontSize=14;" vertex="1" parent="1">
          <mxGeometry x="360" y="210" width="120" height="40" as="geometry" />
        </mxCell>
      </root>
    </mxGraphModel>
  </diagram>
</mxfile>
